<?xml version="1.0" encoding="UTF-8"?>
<svg xmlns="http://www.w3.org/2000/svg" xmlns:xlink="http://www.w3.org/1999/xlink" width="24px" height="18px" viewBox="0 0 23 18" version="1.1">
<defs>
<linearGradient id="linear0" gradientUnits="userSpaceOnUse" x1="0.37973" y1="0.16999" x2="0.91121" y2="0.76326" gradientTransform="matrix(23,0,0,15.695312,0,0)">
<stop offset="0" style="stop-color:rgb(78.823529%,79.607843%,80.784314%);stop-opacity:1;"/>
<stop offset="1" style="stop-color:rgb(48.235294%,47.843137%,50.588235%);stop-opacity:1;"/>
</linearGradient>
</defs>
<g id="surface1">
<path style=" stroke:none;fill-rule:nonzero;fill:url(#linear0);" d="M 13.417969 13.925781 C 8.625 13.925781 4.554688 11.4375 4.554688 8.453125 C 4.554688 5.46875 8.144531 2.984375 12.9375 2.984375 C 18.988281 2.984375 21.792969 5.402344 21.792969 8.386719 C 21.792969 11.371094 18.703125 13.925781 13.417969 13.925781 M 11.5 0 C 5.269531 0 0 3.484375 0 7.957031 C 0 12.1875 5.238281 15.695312 11.46875 15.695312 C 17.699219 15.695312 23 12.433594 23 7.957031 C 23 3.484375 17.730469 0 11.5 0 "/>
<path style=" stroke:none;fill-rule:nonzero;fill:rgb(12.941176%,39.607843%,71.372549%);fill-opacity:1;" d="M 9.519531 4.835938 L 9.519531 17.992188 L 13.351562 17.992188 L 13.351562 12.875 C 14.308594 12.875 14.878906 12.660156 15.503906 13.851562 C 16.460938 15.554688 17.660156 17.992188 17.660156 17.992188 L 22.210938 17.992188 C 22.210938 17.992188 19.335938 13.121094 19.097656 12.875 C 18.65625 12.386719 18.140625 12.386719 17.421875 12.144531 C 18.855469 11.902344 20.195312 11.28125 20.664062 9.957031 C 21.070312 8.738281 21.019531 7.1875 20.148438 6.148438 C 19.394531 5.328125 18.617188 4.835938 16.703125 4.835938 Z M 13.351562 7.574219 L 15.863281 7.574219 C 16.460938 7.574219 16.941406 8.183594 16.941406 8.792969 C 16.941406 9.402344 16.460938 10.011719 15.863281 10.011719 L 13.351562 10.011719 Z M 13.351562 7.574219 "/>
</g>
</svg>
