<?xml version="1.0" encoding="UTF-8"?>
<svg xmlns="http://www.w3.org/2000/svg" xmlns:xlink="http://www.w3.org/1999/xlink" width="71px" height="24px" viewBox="0 0 70 24" version="1.1">
<g id="surface1">
<path style=" stroke:none;fill-rule:nonzero;fill:rgb(30.196078%,30.196078%,30.196078%);fill-opacity:1;" d="M 28.964844 15.183594 C 29.5 15.535156 30.261719 15.800781 31.082031 15.800781 C 32.285156 15.800781 32.996094 15.136719 32.996094 14.164062 C 32.996094 13.285156 32.507812 12.757812 31.273438 12.265625 C 29.773438 11.703125 28.84375 10.875 28.84375 9.527344 C 28.84375 8.035156 30.03125 6.921875 31.820312 6.921875 C 32.742188 6.921875 33.441406 7.148438 33.835938 7.394531 L 33.507812 8.40625 C 33.21875 8.222656 32.609375 7.957031 31.777344 7.957031 C 30.523438 7.957031 30.046875 8.734375 30.046875 9.394531 C 30.046875 10.285156 30.605469 10.722656 31.867188 11.242188 C 33.429688 11.875 34.199219 12.652344 34.199219 14.066406 C 34.199219 15.550781 33.167969 16.851562 31 16.851562 C 30.109375 16.851562 29.15625 16.5625 28.652344 16.21875 Z M 37.199219 8.140625 L 37.199219 9.792969 L 38.910156 9.792969 L 38.910156 10.746094 L 37.199219 10.746094 L 37.199219 14.472656 C 37.199219 15.320312 37.429688 15.800781 38.097656 15.800781 C 38.414062 15.800781 38.613281 15.777344 38.78125 15.71875 L 38.839844 16.675781 C 38.613281 16.757812 38.25 16.851562 37.777344 16.851562 C 37.21875 16.851562 36.765625 16.640625 36.492188 16.320312 C 36.164062 15.929688 36.023438 15.320312 36.023438 14.503906 L 36.023438 10.746094 L 35 10.746094 L 35 9.792969 L 36.023438 9.792969 L 36.023438 8.507812 Z M 45.777344 14.789062 C 45.777344 15.515625 45.789062 16.148438 45.824219 16.6875 L 44.761719 16.6875 L 44.695312 15.5625 L 44.671875 15.5625 C 44.367188 16.125 43.660156 16.851562 42.484375 16.851562 C 41.460938 16.851562 40.214844 16.238281 40.214844 13.828125 L 40.214844 9.792969 L 41.414062 9.792969 L 41.414062 13.59375 C 41.414062 14.910156 41.816406 15.800781 42.882812 15.800781 C 43.691406 15.800781 44.253906 15.226562 44.46875 14.65625 C 44.539062 14.480469 44.582031 14.25 44.582031 14.011719 L 44.582031 9.792969 L 45.777344 9.792969 Z M 53.445312 6.566406 L 53.445312 14.910156 C 53.445312 15.515625 53.46875 16.21875 53.492188 16.6875 L 52.429688 16.6875 L 52.386719 15.492188 L 52.339844 15.492188 C 51.984375 16.261719 51.203125 16.851562 50.121094 16.851562 C 48.523438 16.851562 47.292969 15.433594 47.292969 13.328125 C 47.273438 11.046875 48.652344 9.644531 50.242188 9.644531 C 51.265625 9.644531 51.933594 10.152344 52.238281 10.691406 L 52.257812 10.691406 L 52.257812 6.566406 Z M 52.257812 12.59375 C 52.257812 12.4375 52.246094 12.226562 52.207031 12.070312 C 52.023438 11.285156 51.375 10.632812 50.472656 10.632812 C 49.230469 10.632812 48.5 11.765625 48.5 13.285156 C 48.5 14.675781 49.175781 15.839844 50.453125 15.839844 C 51.246094 15.839844 51.984375 15.265625 52.207031 14.332031 C 52.246094 14.171875 52.257812 14 52.257812 13.796875 Z M 56.785156 7.851562 C 56.785156 8.28125 56.488281 8.621094 56.023438 8.621094 C 55.578125 8.621094 55.292969 8.28125 55.292969 7.851562 C 55.292969 7.425781 55.597656 7.058594 56.042969 7.058594 C 56.476562 7.070312 56.785156 7.414062 56.785156 7.851562 Z M 55.4375 16.6875 L 55.4375 9.792969 L 56.648438 9.792969 L 56.648438 16.6875 Z M 64.601562 13.183594 C 64.601562 15.734375 62.890625 16.851562 61.320312 16.851562 C 59.539062 16.851562 58.152344 15.480469 58.152344 13.296875 C 58.152344 11 59.609375 9.644531 61.421875 9.644531 C 63.324219 9.644531 64.601562 11.089844 64.601562 13.183594 Z M 59.382812 13.253906 C 59.382812 14.769531 60.199219 15.902344 61.375 15.902344 C 62.515625 15.902344 63.378906 14.777344 63.378906 13.226562 C 63.378906 12.058594 62.808594 10.589844 61.398438 10.589844 C 59.996094 10.589844 59.382812 11.957031 59.382812 13.253906 Z M 63.925781 7.070312 C 63.496094 7.070312 63.152344 7.425781 63.152344 7.875 C 63.152344 8.324219 63.496094 8.691406 63.925781 8.691406 C 64.347656 8.691406 64.703125 8.324219 64.703125 7.875 C 64.703125 7.425781 64.347656 7.070312 63.925781 7.070312 Z M 64.574219 7.875 C 64.574219 8.253906 64.277344 8.550781 63.925781 8.550781 C 63.578125 8.550781 63.277344 8.242188 63.277344 7.875 C 63.277344 7.507812 63.578125 7.210938 63.925781 7.210938 C 64.277344 7.199219 64.574219 7.507812 64.574219 7.875 Z M 64.574219 7.875 "/>
<path style=" stroke:none;fill-rule:nonzero;fill:rgb(30.196078%,30.196078%,30.196078%);fill-opacity:1;" d="M 64.199219 8.210938 L 64.003906 7.914062 C 64.125 7.875 64.167969 7.78125 64.167969 7.667969 C 64.167969 7.496094 64.027344 7.425781 63.894531 7.425781 C 63.859375 7.425781 63.824219 7.4375 63.792969 7.4375 C 63.757812 7.449219 63.722656 7.449219 63.691406 7.449219 C 63.640625 7.449219 63.609375 7.4375 63.5625 7.425781 L 63.539062 7.425781 L 63.539062 7.546875 L 63.652344 7.554688 L 63.652344 8.210938 L 63.539062 8.210938 L 63.539062 8.324219 L 63.902344 8.324219 L 63.902344 8.210938 L 63.78125 8.210938 L 63.78125 7.933594 L 63.882812 7.933594 L 64.125 8.3125 L 64.132812 8.324219 L 64.304688 8.324219 L 64.304688 8.210938 Z M 64.054688 7.679688 C 64.054688 7.722656 64.027344 7.761719 64.003906 7.78125 C 63.964844 7.804688 63.914062 7.816406 63.835938 7.816406 L 63.78125 7.816406 L 63.78125 7.554688 C 63.824219 7.554688 63.859375 7.554688 63.894531 7.554688 C 63.964844 7.554688 64.054688 7.578125 64.054688 7.679688 Z M 64.054688 7.679688 "/>
<path style=" stroke:none;fill-rule:nonzero;fill:rgb(45.882353%,66.666667%,85.882353%);fill-opacity:1;" d="M 23.789062 19.578125 C 27.789062 15.390625 27.789062 8.609375 23.789062 4.414062 C 19.789062 0.234375 13.308594 0.234375 9.296875 4.414062 C 5.296875 8.609375 5.296875 15.390625 9.296875 19.578125 C 13.308594 23.765625 19.789062 23.765625 23.789062 19.578125 Z M 23.789062 19.578125 "/>
<path style=" stroke:none;fill-rule:nonzero;fill:rgb(100%,100%,100%);fill-opacity:1;" d="M 20.050781 15.421875 L 21.15625 15.421875 L 21.15625 16.320312 L 19.460938 16.320312 L 16.660156 11.917969 L 15.152344 11.917969 L 15.152344 15.421875 L 16.621094 15.421875 L 16.621094 16.320312 L 12.933594 16.320312 L 12.933594 15.421875 L 14.199219 15.421875 L 14.199219 7.660156 L 12.933594 7.496094 L 12.933594 6.636719 C 13.410156 6.75 13.832031 6.832031 14.351562 6.832031 C 15.140625 6.832031 15.941406 6.636719 16.726562 6.636719 C 18.261719 6.636719 19.675781 7.355469 19.675781 9.140625 C 19.675781 10.507812 18.886719 11.378906 17.671875 11.757812 Z M 15.152344 11.046875 L 15.960938 11.058594 C 17.921875 11.089844 18.675781 10.296875 18.675781 9.253906 C 18.675781 8.027344 17.820312 7.546875 16.75 7.546875 C 16.234375 7.546875 15.710938 7.589844 15.152344 7.660156 Z M 15.152344 11.046875 "/>
</g>
</svg>
